<svg width="64" height="63" viewBox="0 0 64 63" fill="none" xmlns="http://www.w3.org/2000/svg">
<g clip-path="url(#clip0_2092_966)">
<path fill-rule="evenodd" clip-rule="evenodd" d="M12.5867 30.8795C12.5867 26.0062 14.6321 21.3324 18.2728 17.8864C21.9135 14.4404 26.8513 12.5045 32.0001 12.5045C37.1488 12.5045 42.0867 14.4404 45.7274 17.8864C49.3681 21.3324 51.4134 26.0062 51.4134 30.8795V36.2214C56.117 36.8593 59.7334 40.6891 59.7334 45.317V45.9733C59.7334 47.0936 59.5003 48.203 59.0473 49.238C58.5943 50.2731 57.9304 51.2136 57.0934 52.0058C56.2565 52.798 55.2629 53.4264 54.1693 53.8551C53.0758 54.2838 51.9037 54.5045 50.7201 54.5045C49.4329 54.5045 48.1984 54.0205 47.2882 53.159C46.3781 52.2975 45.8667 51.1291 45.8667 49.9108V30.8795C45.8667 27.3985 44.4058 24.0602 41.8053 21.5987C39.2048 19.1373 35.6777 17.7545 32.0001 17.7545C28.3224 17.7545 24.7953 19.1373 22.1948 21.5987C19.5943 24.0602 18.1334 27.3985 18.1334 30.8795V49.9108C18.1334 51.1291 17.6221 52.2975 16.7119 53.159C15.8017 54.0205 14.5672 54.5045 13.2801 54.5045C10.8896 54.5045 8.597 53.6057 6.90667 52.0058C5.21634 50.4058 4.26672 48.2359 4.26672 45.9733V45.317C4.26612 43.1073 5.10693 40.9715 6.63502 39.3009C8.16312 37.6304 10.2761 36.5371 12.5867 36.2214V30.8795ZM12.5867 41.6026C11.7753 41.8742 11.0728 42.3772 10.5761 43.0425C10.0794 43.7077 9.81294 44.5024 9.81339 45.317V45.9733C9.81339 47.5614 11.0059 48.887 12.5867 49.1889V41.6026ZM51.4134 41.6026V49.1889C52.9942 48.8844 54.1867 47.5614 54.1867 45.9733V45.317C54.1872 44.5024 53.9207 43.7077 53.424 43.0425C52.9273 42.3772 52.2248 41.8742 51.4134 41.6026Z" fill="#F073E4"/>
<path fill-rule="evenodd" clip-rule="evenodd" d="M13.3334 27.7295C13.3334 22.8561 15.3 18.1824 18.8007 14.7364C22.3014 11.2904 27.0493 9.35449 32 9.35449C36.9507 9.35449 41.6987 11.2904 45.1994 14.7364C48.7 18.1824 50.6667 22.8561 50.6667 27.7295V33.0714C55.1894 33.7092 58.6667 37.5391 58.6667 42.167V42.8232C58.6667 43.9436 58.4425 45.0529 58.007 46.088C57.5715 47.1231 56.9331 48.0635 56.1283 48.8557C55.3235 49.6479 54.3681 50.2764 53.3166 50.7051C52.2651 51.1338 51.1382 51.3545 50 51.3545C48.7624 51.3545 47.5754 50.8705 46.7002 50.009C45.825 49.1475 45.3334 47.9791 45.3334 46.7607V27.7295C45.3334 24.2485 43.9286 20.9101 41.4281 18.4487C38.9276 15.9873 35.5363 14.6045 32 14.6045C28.4638 14.6045 25.0724 15.9873 22.572 18.4487C20.0715 20.9101 18.6667 24.2485 18.6667 27.7295V46.7607C18.6667 47.9791 18.175 49.1475 17.2999 50.009C16.4247 50.8705 15.2377 51.3545 14 51.3545C11.7015 51.3545 9.4971 50.4557 7.87178 48.8557C6.24647 47.2558 5.33337 45.0859 5.33337 42.8232V42.167C5.3328 39.9573 6.14127 37.8214 7.61059 36.1509C9.07991 34.4803 11.1116 33.387 13.3334 33.0714V27.7295ZM13.3334 38.4526C12.5532 38.7241 11.8777 39.2272 11.4001 39.8925C10.9225 40.5577 10.6663 41.3524 10.6667 42.167V42.8232C10.6667 44.4114 11.8134 45.737 13.3334 46.0389V38.4526ZM50.6667 38.4526V46.0389C52.1867 45.7344 53.3334 44.4114 53.3334 42.8232V42.167C53.3338 41.3524 53.0776 40.5577 52.6 39.8925C52.1224 39.2272 51.4469 38.7241 50.6667 38.4526Z" fill="white"/>
</g>
<defs>
<clipPath id="clip0_2092_966">
<rect width="64" height="63" fill="white"/>
</clipPath>
</defs>
</svg>
