<svg width="45" height="49" viewBox="0 0 45 49" fill="none" xmlns="http://www.w3.org/2000/svg">
<path d="M22.9888 12.9022C22.8579 12.777 22.6838 12.7072 22.5028 12.7072C22.3217 12.7072 22.1476 12.777 22.0167 12.9022L5.83606 28.3595C5.76734 28.4252 5.71267 28.5042 5.67536 28.5917C5.63805 28.6792 5.61886 28.7733 5.61897 28.8684L5.61633 43.3756C5.61633 44.1216 5.91265 44.8369 6.4401 45.3644C6.96754 45.8918 7.68291 46.1881 8.42883 46.1881H16.8751C17.2481 46.1881 17.6058 46.04 17.8695 45.7762C18.1332 45.5125 18.2814 45.1548 18.2814 44.7819V32.8288C18.2814 32.6423 18.3554 32.4634 18.4873 32.3316C18.6192 32.1997 18.798 32.1256 18.9845 32.1256H26.0157C26.2022 32.1256 26.3811 32.1997 26.5129 32.3316C26.6448 32.4634 26.7189 32.6423 26.7189 32.8288V44.7819C26.7189 45.1548 26.867 45.5125 27.1308 45.7762C27.3945 46.04 27.7522 46.1881 28.1251 46.1881H36.5679C37.3138 46.1881 38.0292 45.8918 38.5566 45.3644C39.0841 44.8369 39.3804 44.1216 39.3804 43.3756V28.8684C39.3805 28.7733 39.3613 28.6792 39.324 28.5917C39.2867 28.5042 39.232 28.4252 39.1633 28.3595L22.9888 12.9022Z" fill="#2867A1"/>
<path d="M43.1464 25.4585L36.5722 19.1691V9.625C36.5722 9.25204 36.424 8.89436 36.1603 8.63063C35.8966 8.36691 35.5389 8.21875 35.1659 8.21875H30.9472C30.5742 8.21875 30.2165 8.36691 29.9528 8.63063C29.6891 8.89436 29.5409 9.25204 29.5409 9.625V12.4375L24.4503 7.57012C23.974 7.08848 23.2656 6.8125 22.5 6.8125C21.7371 6.8125 21.0305 7.08848 20.5541 7.571L1.8598 25.4568C1.31312 25.9841 1.24456 26.8516 1.74203 27.4229C1.86695 27.5671 2.0199 27.6844 2.19158 27.7676C2.36327 27.8508 2.55009 27.8982 2.74067 27.9069C2.93126 27.9156 3.12163 27.8855 3.30019 27.8183C3.47875 27.7511 3.64177 27.6482 3.77933 27.516L22.0166 10.0891C22.1475 9.96389 22.3216 9.89403 22.5027 9.89403C22.6837 9.89403 22.8578 9.96389 22.9887 10.0891L41.2278 27.516C41.4964 27.7737 41.8563 27.9143 42.2285 27.9071C42.6007 27.8998 42.9548 27.7453 43.2132 27.4774C43.7529 26.9184 43.708 25.9955 43.1464 25.4585Z" fill="#2867A1"/>
<path d="M22.9888 9.40219C22.8579 9.27702 22.6838 9.20715 22.5028 9.20715C22.3217 9.20715 22.1476 9.27702 22.0167 9.40219L5.83606 24.8595C5.76734 24.9252 5.71267 25.0042 5.67536 25.0917C5.63805 25.1792 5.61886 25.2733 5.61897 25.3684L5.61633 39.8756C5.61633 40.6216 5.91265 41.3369 6.4401 41.8644C6.96754 42.3918 7.68291 42.6881 8.42883 42.6881H16.8751C17.2481 42.6881 17.6058 42.54 17.8695 42.2762C18.1332 42.0125 18.2814 41.6548 18.2814 41.2819V29.3288C18.2814 29.1423 18.3554 28.9634 18.4873 28.8316C18.6192 28.6997 18.798 28.6256 18.9845 28.6256H26.0157C26.2022 28.6256 26.3811 28.6997 26.5129 28.8316C26.6448 28.9634 26.7189 29.1423 26.7189 29.3288V41.2819C26.7189 41.6548 26.867 42.0125 27.1308 42.2762C27.3945 42.54 27.7522 42.6881 28.1251 42.6881H36.5679C37.3138 42.6881 38.0292 42.3918 38.5566 41.8644C39.0841 41.3369 39.3804 40.6216 39.3804 39.8756V25.3684C39.3805 25.2733 39.3613 25.1792 39.324 25.0917C39.2867 25.0042 39.232 24.9252 39.1633 24.8595L22.9888 9.40219Z" fill="white"/>
<path d="M43.1464 21.9585L36.5722 15.6691V6.125C36.5722 5.75204 36.424 5.39436 36.1603 5.13063C35.8966 4.86691 35.5389 4.71875 35.1659 4.71875H30.9472C30.5742 4.71875 30.2165 4.86691 29.9528 5.13063C29.6891 5.39436 29.5409 5.75204 29.5409 6.125V8.93751L24.4503 4.07012C23.974 3.58848 23.2656 3.3125 22.5 3.3125C21.7371 3.3125 21.0305 3.58848 20.5541 4.071L1.8598 21.9568C1.31312 22.4841 1.24456 23.3516 1.74203 23.9229C1.86695 24.0671 2.0199 24.1844 2.19158 24.2676C2.36327 24.3508 2.55009 24.3982 2.74067 24.4069C2.93126 24.4156 3.12163 24.3855 3.30019 24.3183C3.47875 24.2511 3.64177 24.1482 3.77933 24.016L22.0166 6.58907C22.1475 6.46389 22.3216 6.39403 22.5027 6.39403C22.6837 6.39403 22.8578 6.46389 22.9887 6.58907L41.2278 24.016C41.4964 24.2737 41.8563 24.4143 42.2285 24.4071C42.6007 24.3998 42.9548 24.2453 43.2132 23.9774C43.7529 23.4184 43.708 22.4955 43.1464 21.9585Z" fill="white"/>
</svg>
