<svg width="65" height="66" viewBox="0 0 65 66" fill="none" xmlns="http://www.w3.org/2000/svg">
<g clip-path="url(#clip0_2092_921)">
<path fill-rule="evenodd" clip-rule="evenodd" d="M7.125 16.3008C7.125 14.8518 7.70059 13.4622 8.72515 12.4377C9.74971 11.4131 11.1393 10.8375 12.5882 10.8375H18.0515C19.0458 10.8375 19.98 11.1025 20.7831 11.5696C21.6131 11.0889 22.5556 10.8363 23.5147 10.8375H28.978C30.9639 10.8375 32.7039 11.8974 33.66 13.4845C34.2336 13.0256 34.9056 12.6759 35.6596 12.4738L40.9371 11.0615C41.6301 10.8756 42.353 10.8281 43.0644 10.9216C43.7759 11.0151 44.4619 11.2478 45.0834 11.6065C45.7049 11.9652 46.2496 12.4428 46.6865 13.012C47.1233 13.5812 47.4438 14.2309 47.6295 14.924L58.9385 57.1413C59.1244 57.8343 59.1719 58.5572 59.0784 59.2687C58.9849 59.9801 58.7522 60.6661 58.3935 61.2876C58.0348 61.9091 57.5572 62.4538 56.988 62.8907C56.4188 63.3276 55.769 63.648 55.0759 63.8338L49.7984 65.246C49.1054 65.4319 48.3825 65.4795 47.6711 65.386C46.9596 65.2925 46.2736 65.0597 45.6521 64.7011C45.0306 64.3424 44.4859 63.8648 44.049 63.2956C43.6122 62.7263 43.2917 62.0766 43.106 61.3835L34.4412 29.0383V60.0068C34.4412 61.4557 33.8657 62.8453 32.8411 63.8699C31.8165 64.8944 30.4269 65.47 28.978 65.47H23.5147C22.5556 65.4713 21.6131 65.2187 20.7831 64.7379C19.9531 65.2187 19.0107 65.4713 18.0515 65.47H12.5882C11.1393 65.47 9.74971 64.8944 8.72515 63.8699C7.70059 62.8453 7.125 61.4557 7.125 60.0068V16.3008ZM12.5882 16.3008H18.0515V60.0068H12.5882V16.3008ZM28.978 60.0068H23.5147V16.3008H28.978V60.0068ZM37.0745 17.7513L42.3493 16.339L53.6637 58.5563L48.3862 59.9685L37.0745 17.7513Z" fill="#DC493F"/>
<path fill-rule="evenodd" clip-rule="evenodd" d="M8.125 11.2542C8.125 9.81761 8.69568 8.43986 9.7115 7.42403C10.7273 6.40821 12.1051 5.83753 13.5417 5.83753H18.9583C19.9442 5.83753 20.8704 6.10024 21.6667 6.56336C22.4896 6.08671 23.424 5.83629 24.375 5.83753H29.7917C31.7606 5.83753 33.4858 6.88836 34.4338 8.4619C35.0025 8.0069 35.6688 7.66024 36.4163 7.45982L41.6488 6.05961C42.3359 5.87529 43.0526 5.82814 43.758 5.92085C44.4634 6.01356 45.1436 6.24431 45.7597 6.59993C46.3759 6.95556 46.916 7.42908 47.3491 7.99345C47.7823 8.55783 48.1 9.20201 48.2842 9.8892L59.4967 51.7465C59.681 52.4336 59.7281 53.1503 59.6354 53.8557C59.5427 54.5611 59.312 55.2413 58.9563 55.8575C58.6007 56.4736 58.1272 57.0137 57.5628 57.4469C56.9984 57.88 56.3543 58.1977 55.6671 58.3819L50.4346 59.7821C49.7474 59.9664 49.0307 60.0136 48.3254 59.9209C47.62 59.8282 46.9398 59.5974 46.3236 59.2418C45.7074 58.8862 45.1674 58.4126 44.7342 57.8483C44.3011 57.2839 43.9833 56.6397 43.7992 55.9525L35.2083 23.8832V54.5875C35.2083 56.0241 34.6377 57.4019 33.6218 58.4177C32.606 59.4335 31.2283 60.0042 29.7917 60.0042H24.375C23.424 60.0054 22.4896 59.755 21.6667 59.2784C20.8437 59.755 19.9093 60.0054 18.9583 60.0042H13.5417C12.1051 60.0042 10.7273 59.4335 9.7115 58.4177C8.69568 57.4019 8.125 56.0241 8.125 54.5875V11.2542ZM13.5417 11.2542H18.9583V54.5875H13.5417V11.2542ZM29.7917 54.5875H24.375V11.2542H29.7917V54.5875ZM37.8192 12.6923L43.049 11.2921L54.2669 53.1494L49.0344 54.5496L37.8192 12.6923Z" fill="white"/>
</g>
<defs>
<clipPath id="clip0_2092_921">
<rect width="65" height="65" fill="white" transform="translate(0 0.420898)"/>
</clipPath>
</defs>
</svg>
